<?xml version="1.0" encoding="utf-8"?>
<!-- Generator: Adobe Illustrator 19.1.0, SVG Export Plug-In . SVG Version: 6.00 Build 0)  -->
<!DOCTYPE svg PUBLIC "-//W3C//DTD SVG 1.1//EN" "http://www.w3.org/Graphics/SVG/1.1/DTD/svg11.dtd">
<svg version="1.1" id="Layer_1" xmlns="http://www.w3.org/2000/svg" xmlns:xlink="http://www.w3.org/1999/xlink" x="0px" y="0px"
	 viewBox="0 0 24 24" style="enable-background:new 0 0 24 24;" xml:space="preserve">
<path d="M6.5,22.5h-5v-13h5V22.5z M4,7.5L4,7.5C2.5,7.5,1.5,6.3,1.5,5c0-1.3,1-2.4,2.5-2.4c1.5,0,2.5,1.1,2.5,2.4
	C6.6,6.4,5.6,7.5,4,7.5z M15.5,13.5c-1.1,0-2,0.9-2,2v7h-5c0,0,0.1-12,0-13h5V11c0,0,1.5-1.4,3.9-1.4c3,0,5.1,2.1,5.1,6.3v6.7h-5v-7
	C17.5,14.4,16.6,13.5,15.5,13.5z"/>
</svg>
