<?xml version="1.0" encoding="utf-8"?>
<!-- Generator: Adobe Illustrator 19.1.0, SVG Export Plug-In . SVG Version: 6.00 Build 0)  -->
<!DOCTYPE svg PUBLIC "-//W3C//DTD SVG 1.1//EN" "http://www.w3.org/Graphics/SVG/1.1/DTD/svg11.dtd">
<svg version="1.1" id="Layer_1" xmlns="http://www.w3.org/2000/svg" xmlns:xlink="http://www.w3.org/1999/xlink" x="0px" y="0px"
	 viewBox="0 0 24 24" style="enable-background:new 0 0 24 24;" xml:space="preserve">
<path d="M21.5,9.5L21.5,9.5c0,0,2.7-4.5-0.6-7.2c-2,0-5.1,3.3-5.1,3.3l0,0c-2.5-0.7-5.3-0.7-7.8,0c0,0-3.1-3.3-5.1-3.3
	c-3.2,2.6-0.7,7-0.6,7.2c-1,1.5-1.6,3.4-1.4,5.7c0.2,3.1,2.8,6.5,6,6.5h9.9c3.1,0,5.7-3.4,6-6.5C23.1,12.9,22.5,11,21.5,9.5z
	 M16,19.8H8c-1.9,0-3.5-1.6-3.5-3.5c0-5.9,4.1-3.5,7.5-3.5c3.4,0,7.5-2.4,7.5,3.5C19.5,18.2,17.9,19.8,16,19.8z M16.5,16.2
	c0,0.8-0.4,1.5-1,1.5c-0.6,0-1-0.7-1-1.5s0.4-1.5,1-1.5C16.1,14.8,16.5,15.4,16.5,16.2z M9.5,16.2c0,0.8-0.4,1.5-1,1.5
	c-0.6,0-1-0.7-1-1.5s0.4-1.5,1-1.5C9.1,14.8,9.5,15.4,9.5,16.2z"/>
</svg>
