<?xml version="1.0" encoding="utf-8"?>
<!-- Generator: Adobe Illustrator 19.1.0, SVG Export Plug-In . SVG Version: 6.00 Build 0)  -->
<!DOCTYPE svg PUBLIC "-//W3C//DTD SVG 1.1//EN" "http://www.w3.org/Graphics/SVG/1.1/DTD/svg11.dtd">
<svg version="1.1" id="Layer_1" xmlns="http://www.w3.org/2000/svg" xmlns:xlink="http://www.w3.org/1999/xlink" x="0px" y="0px"
	 viewBox="0 0 24 24" style="enable-background:new 0 0 24 24;" xml:space="preserve">>
<path d="M20.9,8c0,0.2,0,0.4,0,0.6c0,6-4.6,12.9-12.9,12.9c-2.6,0-5-0.8-7-2c2.4,0.3,4.8-0.4,6.7-1.9
	c-2,0-3.7-1.4-4.2-3.2c0.7,0.1,1.4,0.1,2.1-0.1c-2.1-0.4-3.6-2.3-3.6-4.5c0,0,0,0,0-0.1c0.6,0.3,1.3,0.5,2.1,0.6
	c-1.2-0.8-2-2.2-2-3.8c0-0.8,0.2-1.6,0.6-2.3c2.2,2.8,5.6,4.6,9.4,4.7c-0.1-0.3-0.1-0.7-0.1-1c0-2.5,2-4.5,4.5-4.5
	c1.3,0,2.5,0.6,3.3,1.4c1-0.2,2-0.6,2.9-1.1c-0.3,1.1-0.4,1.5-1.3,2c0.7,0.4,1.4,0.3,2.2,0C22.8,6.7,21.8,7.3,20.9,8z"/>
</svg>
