<?xml version="1.0" encoding="utf-8"?>
<!-- Generator: Adobe Illustrator 19.1.0, SVG Export Plug-In . SVG Version: 6.00 Build 0)  -->
<!DOCTYPE svg PUBLIC "-//W3C//DTD SVG 1.1//EN" "http://www.w3.org/Graphics/SVG/1.1/DTD/svg11.dtd">
<svg version="1.1" id="Layer_1" xmlns="http://www.w3.org/2000/svg" xmlns:xlink="http://www.w3.org/1999/xlink" x="0px" y="0px"
	 viewBox="0 0 24 24" style="enable-background:new 0 0 24 24;" xml:space="preserve">
<path d="M18,12c0,3.3-2.7,6-6,6s-6-2.7-6-6c0-3.3,2.7-6,6-6S18,8.7,18,12z M4,1.1C3.6,1.1,3.3,1.2,3,1.4v7.1h1V1.1z
	 M6,8.4V1H5v7.5L6,8.4C6,8.5,6,8.4,6,8.4z M18.8,23H5.2C2.9,23,1,21.1,1,18.8V8.5V5.2V4.5c0-1,0.4-1.8,1-2.4v3.1v3.3v10.3
	C2,20.6,3.4,22,5.2,22h13.7c1.7,0,3.2-1.4,3.2-3.2V8.5h-3.9C16.8,6.4,14.6,5,12,5c-2,0-3.7,0.8-5,2.1V1h12.5C21.4,1,23,2.6,23,4.5
	v0.7v3.3v10.3C23,21.1,21.1,23,18.8,23z M22,6.5V5.2V3.5C22,3.2,21.8,3,21.5,3h-3C18.2,3,18,3.2,18,3.5v3C18,6.8,18.2,7,18.5,7h3
	C21.8,7,22,6.8,22,6.5z"/>
</svg>
